<svg width="64" height="64" viewBox="0 0 64 64" fill="none" xmlns="http://www.w3.org/2000/svg">
<rect x="3.2" y="3.20001" width="51" height="51" rx="7.5" stroke="black" stroke-width="5"/>
<mask id="path-2-inside-1" fill="white">
<path fill-rule="evenodd" clip-rule="evenodd" d="M59.4053 21.4052C59.4053 20.1816 59.0389 19.0435 58.41 18.0946V12.7458C61.3964 14.4755 63.4053 17.7058 63.4053 21.4052V53.4052C63.4053 58.9281 58.9281 63.4052 53.4053 63.4052H21.4053C17.7058 63.4052 14.4756 61.3964 12.7458 58.41H18.0946C19.0435 59.0389 20.1816 59.4052 21.4053 59.4052H53.4053C56.719 59.4052 59.4053 56.719 59.4053 53.4052V21.4052Z"/>
</mask>
<path d="M58.41 18.0946H54.41V19.2999L55.0759 20.3045L58.41 18.0946ZM58.41 12.7458L60.4148 9.2845L54.41 5.80651V12.7458H58.41ZM12.7458 58.41V54.41H5.80651L9.28451 60.4148L12.7458 58.41ZM18.0946 58.41L20.3046 55.0759L19.2999 54.41H18.0946V58.41ZM55.0759 20.3045C55.284 20.6185 55.4053 20.9916 55.4053 21.4052H63.4053C63.4053 19.3716 62.7939 17.4685 61.7441 15.8847L55.0759 20.3045ZM54.41 12.7458V18.0946H62.41V12.7458H54.41ZM67.4053 21.4052C67.4053 16.221 64.5853 11.7001 60.4148 9.2845L56.4052 16.2071C58.2075 17.251 59.4053 19.1906 59.4053 21.4052H67.4053ZM67.4053 53.4052V21.4052H59.4053V53.4052H67.4053ZM53.4053 67.4052C61.1372 67.4052 67.4053 61.1372 67.4053 53.4052H59.4053C59.4053 56.719 56.719 59.4052 53.4053 59.4052V67.4052ZM21.4053 67.4052H53.4053V59.4052H21.4053V67.4052ZM9.28451 60.4148C11.7001 64.5853 16.221 67.4052 21.4053 67.4052V59.4052C19.1906 59.4052 17.251 58.2075 16.2072 56.4052L9.28451 60.4148ZM18.0946 54.41H12.7458V62.41H18.0946V54.41ZM21.4053 55.4052C20.9916 55.4052 20.6185 55.284 20.3046 55.0759L15.8847 61.7441C17.4685 62.7939 19.3716 63.4052 21.4053 63.4052V55.4052ZM53.4053 55.4052H21.4053V63.4052H53.4053V55.4052ZM55.4053 53.4052C55.4053 54.5098 54.5098 55.4052 53.4053 55.4052V63.4052C58.9281 63.4052 63.4053 58.9281 63.4053 53.4052H55.4053ZM55.4053 21.4052V53.4052H63.4053V21.4052H55.4053Z" fill="black" mask="url(#path-2-inside-1)"/>
</svg>
